# xmcd CD database file
#
# Track frame offsets:
#	150
#	9688
#	26302
#	37171
#	48197
#	66589
#	71673
#	91690
#	108716
#	124489
#	144281
#	151691
#	169915
#	197743
#	199993
#
# Disc length: 3018 seconds
#
# Revision: 6
# Processed by: cddbd v1.5.2PL0 Copyright (c) Steve Scherf et al.
# Submitted via: CDex 1.70beta2
#
DISCID=d50bc80f
DTITLE=theDiligents - Clinging To The Rubble
DYEAR=2010
DGENRE=Rhythmic Soul
TTITLE0=Beyond The Surface
TTITLE1=Rubble
TTITLE2=47 Minutes To Denver
TTITLE3=Heart's A Mess
TTITLE4=Angel In Me
TTITLE5=Star Burst
TTITLE6=Telemetry
TTITLE7=Cling ( Radio Edit )
TTITLE8=Built For Winners
TTITLE9=Beauty's Eye
TTITLE10=Sleepy
TTITLE11=XS
TTITLE12=Final Farewell
TTITLE13=Silence
TTITLE14=Cling ( Original )
EXTD=YEAR: 2010
EXTT0=
EXTT1=
EXTT2=
EXTT3=
EXTT4=
EXTT5=
EXTT6=
EXTT7=
EXTT8=
EXTT9=
EXTT10=
EXTT11=
EXTT12=
EXTT13=
EXTT14=
PLAYORDER=
